<svg width="146" height="168" viewBox="0 0 146 168" fill="none" xmlns="http://www.w3.org/2000/svg">
<path d="M142.738 21.4137L73.9883 0.507458C73.475 0.351302 72.9329 0.318928 72.4052 0.412916C71.8774 0.506904 71.3786 0.724653 70.9486 1.04878C70.5187 1.37291 70.1694 1.79444 69.9287 2.27972C69.6881 2.765 69.5626 3.3006 69.5625 3.84375V107.286C64.3702 99.7966 56.705 94.4381 47.9534 92.1798C39.2018 89.9216 29.9419 90.9127 21.8487 94.974C13.7555 99.0353 7.36348 105.899 3.82897 114.322C0.294471 122.746 -0.14911 132.173 2.57847 140.9C5.30605 149.626 11.0247 157.075 18.6998 161.898C26.375 166.722 35.4998 168.602 44.4237 167.198C53.3476 165.794 61.4811 161.199 67.353 154.245C73.2249 147.29 76.4474 138.435 76.4375 129.281V50.3427L140.762 69.8988C141.275 70.0549 141.817 70.0873 142.345 69.9933C142.873 69.8993 143.371 69.6816 143.801 69.3575C144.231 69.0333 144.581 68.6118 144.821 68.1265C145.062 67.6412 145.187 67.1056 145.187 66.5625V24.75C145.187 24.0009 144.949 23.2718 144.508 22.6709C144.067 22.0699 143.446 21.6291 142.738 21.4137ZM38.625 160.641C32.5061 160.641 26.5247 158.801 21.437 155.356C16.3494 151.91 12.3841 147.012 10.0425 141.282C7.70088 135.552 7.08821 129.246 8.28194 123.163C9.47567 117.08 12.4222 111.493 16.7489 107.107C21.0756 102.721 26.5881 99.7344 32.5894 98.5244C38.5907 97.3144 44.8112 97.9354 50.4643 100.309C56.1173 102.682 60.9491 106.702 64.3486 111.859C67.748 117.016 69.5625 123.079 69.5625 129.281C69.5625 137.598 66.303 145.575 60.5011 151.456C54.6992 157.337 46.8301 160.641 38.625 160.641ZM138.312 61.876L76.4375 43.043V8.53023L138.312 27.3633V61.876Z" fill="white"/>
</svg>
