<svg width="166" height="182" viewBox="0 0 166 182" fill="none" xmlns="http://www.w3.org/2000/svg">
<path d="M163.864 1.13077C163.453 0.804795 162.973 0.578114 162.463 0.467931C161.952 0.357749 161.423 0.366961 160.916 0.494867L50.9164 28.3699C50.1727 28.5583 49.5125 28.9933 49.0407 29.6057C48.5689 30.218 48.3126 30.9727 48.3125 31.7497V135.297C44.0544 130.403 38.2374 127.178 31.8749 126.184C25.5124 125.191 19.0076 126.491 13.4938 129.859C7.97993 133.227 3.80652 138.449 1.70058 144.615C-0.405355 150.782 -0.310335 157.502 1.96909 163.604C4.24851 169.707 8.56787 174.805 14.1747 178.012C19.7815 181.218 26.3203 182.329 32.6522 181.151C38.984 179.973 44.7074 176.581 48.8253 171.565C52.9433 166.549 55.1947 160.228 55.1875 153.703V76.28L158.312 50.1472V107.422C154.054 102.528 148.237 99.3029 141.875 98.3093C135.512 97.3157 129.008 98.6161 123.494 101.984C117.98 105.352 113.807 110.574 111.701 116.74C109.595 122.907 109.69 129.627 111.969 135.729C114.249 141.832 118.568 146.93 124.175 150.137C129.781 153.343 136.32 154.454 142.652 153.276C148.984 152.098 154.707 148.706 158.825 143.69C162.943 138.674 165.195 132.353 165.187 125.828V3.87471C165.187 3.34549 165.067 2.82336 164.838 2.34792C164.609 1.87248 164.276 1.45623 163.864 1.13077ZM27.6875 174.609C23.6082 174.609 19.6206 173.383 16.2288 171.086C12.8371 168.789 10.1935 165.523 8.63247 161.703C7.07141 157.883 6.66297 153.68 7.45879 149.624C8.25461 145.569 10.2189 141.844 13.1034 138.92C15.9879 135.996 19.6629 134.005 23.6637 133.198C27.6646 132.392 31.8116 132.806 35.5803 134.388C39.3491 135.97 42.5702 138.65 44.8365 142.088C47.1028 145.526 48.3125 149.568 48.3125 153.703C48.3125 159.248 46.1395 164.565 42.2716 168.486C38.4036 172.406 33.1576 174.609 27.6875 174.609ZM137.687 146.734C133.608 146.734 129.621 145.508 126.229 143.211C122.837 140.914 120.194 137.648 118.632 133.828C117.071 130.008 116.663 125.805 117.459 121.749C118.255 117.694 120.219 113.969 123.103 111.045C125.988 108.121 129.663 106.13 133.664 105.323C137.665 104.517 141.812 104.931 145.58 106.513C149.349 108.095 152.57 110.775 154.837 114.213C157.103 117.651 158.312 121.693 158.312 125.828C158.312 131.373 156.14 136.69 152.272 140.611C148.404 144.531 143.158 146.734 137.687 146.734ZM55.1875 69.1022V34.4675L158.312 8.33471V42.9694L55.1875 69.1022Z" fill="white"/>
</svg>
